<?xml version="1.0" encoding="utf-8"?>
<!-- Generator: Adobe Illustrator 27.3.1, SVG Export Plug-In . SVG Version: 6.00 Build 0)  -->
<svg version="1.1" id="_レイヤー_1" xmlns="http://www.w3.org/2000/svg" xmlns:xlink="http://www.w3.org/1999/xlink" x="0px"
	 y="0px" viewBox="0 0 431.1 66.7" style="enable-background:new 0 0 431.1 66.7;" xml:space="preserve">
<style type="text/css">
	.st0{fill:#FFFFFF;stroke:#595757;stroke-width:4;stroke-miterlimit:10;}
</style>
<path class="st0" d="M14.5,3.1h14.9L17.3,63.6H2.4L14.5,3.1z"/>
<path class="st0" d="M43.8,3.1h14.9L46.6,63.6H31.7L43.8,3.1z"/>
<path class="st0" d="M58.8,53.1l10.6-8.4c3.2,4.4,8,7.3,12.7,7.3c4.3,0,7.1-2,7.1-5.3c0-2.7-2.7-3.9-6.9-6.5L77,37
	c-5.6-3.5-8.9-7.9-8.9-15.4C68.1,10.7,78.1,2,90.3,2c7.1,0,13.9,3.5,18.8,9.4l-9.3,8.7c-3.1-3.1-6.1-5.3-10-5.3
	c-4.3,0-6.4,2.3-6.4,5.2c0,2.5,2.6,3.6,7.4,6.7l5.6,3.4c5.9,3.5,8.2,7.4,8.2,14.4c0,11.1-9.1,20.1-23.6,20.1
	C73.2,64.7,65.1,61.5,58.8,53.1L58.8,53.1z"/>
<path class="st0" d="M114.3,39c0-22.5,15.3-37,31.3-37c13.9,0,23.4,9.3,23.4,25.7c0,22.5-15.2,37-31.2,37
	C123.8,64.7,114.3,55.4,114.3,39L114.3,39z M153.8,28.6c0-8.7-3.4-13.8-8.9-13.8c-6.9,0-15.2,9.3-15.2,23.2c0,8.7,3.4,13.8,8.9,13.8
	C145.4,51.8,153.8,42.5,153.8,28.6z"/>
<path class="st0" d="M186.4,3.1h19.9c12.1,0,21.4,4.3,21.4,16c0,16.7-13.6,23.6-27.9,23.6h-6.5l-4.1,20.8h-14.9
	C174.3,63.6,186.4,3.1,186.4,3.1z M201.1,31c8,0,11.9-3.9,11.9-9.7c0-4.5-3.2-6.5-8.7-6.5h-5.4L195.7,31H201.1L201.1,31z
	 M199.8,42.7l10.4-1.3l11.9,22.2h-15.6C206.5,63.6,199.8,42.7,199.8,42.7z"/>
<path class="st0" d="M257.4,3.1h15.2l-2.4,27.3c-0.6,6.3-1.3,12.9-2.2,19.3h0.4c2.4-6.4,5.3-13.1,7.6-19.3l11.4-27.3h12.4v27.3
	c-0.2,6.1-0.6,12.8-0.9,19.3h0.4c2-6.5,4.5-13.1,6.3-19.3l9.1-27.3h14.1L306,63.6h-18.8l0.7-25.8c0-3.6,0.6-9.5,1-14h-0.4
	c-1.6,4.5-3.5,9.4-5.3,14l-10,25.8h-18.4L257.4,3.1L257.4,3.1z"/>
<path class="st0" d="M338.5,3.1h36.8l-2.4,12.5h-22.1l-2,10.6h18.8l-2.4,12.5h-18.8l-2.6,12.5h22.9l-2.4,12.5h-37.8L338.5,3.1
	L338.5,3.1z"/>
<path class="st0" d="M388.8,3.1h19.3c12.3,0,21,4.1,21,13.9c0,6.5-4.6,12.5-13,15.1l-0.2,0.4c6.9,1.7,10.2,5.4,10.2,11
	c0,14.5-12.5,20.1-26.6,20.1h-22.9L388.8,3.1L388.8,3.1z M400.7,52.2c7.4,0,11.2-3.2,11.2-8.2c0-4.5-2.6-6.7-8.2-6.7h-6.9l-3,14.9
	H400.7z M403.8,27.3c7.2,0,10-3,10-7.6c0-3.4-2.6-5.2-8.2-5.2h-4.3l-2.6,12.8L403.8,27.3L403.8,27.3z"/>
</svg>
