<?xml version="1.0" encoding="UTF-8"?>
<svg id="_レイヤー_1" data-name="レイヤー 1" xmlns="http://www.w3.org/2000/svg" viewBox="0 0 443.7 82.6">
  <defs>
    <style>
      .cls-1 {
        fill: #fff;
        stroke: #231815;
        stroke-miterlimit: 10;
      }
    </style>
  </defs>
  <path class="cls-1" d="m14.8,18.4c-5.3,0-9-3.8-9-8.9S9.6.5,14.8.5s9,3.7,9,9-3.9,8.9-9,8.9Zm8.8,62.6H6V24.7h17.6v56.3Z"/>
  <path class="cls-1" d="m44.4,18.4c-5.3,0-9-3.8-9-8.9S39.2.5,44.4.5s9,3.7,9,9-3.9,8.9-9,8.9Zm8.8,62.6h-17.6V24.7h17.6v56.3Z"/>
  <path class="cls-1" d="m105.2,20.6c-2.8-1.4-7.4-3.2-13.6-3.2-6.8,0-10.1,3.3-10.1,7.1,0,4.3,3.2,6.4,12.6,10.7,12.3,5.5,17.4,13.1,17.4,22.7,0,14.1-10.7,24.1-29.4,24.1-7.8,0-15.5-2-19.1-4l3-14.8c4.1,2.1,10.6,4,16.8,4,7.4,0,11-3.2,11-7.8s-3.5-7.3-11.5-10.9c-12.2-5.6-18.5-13.2-18.5-22.4,0-13.1,10-23.4,27.9-23.4,7.4,0,13.1,1.6,16.8,3.4l-3.3,14.5Z"/>
  <path class="cls-1" d="m170.5,52.5c0,21.9-14.1,29.6-26.4,29.6-15.6,0-26.3-10.8-26.3-28.9s11.4-29.6,26.9-29.6,25.8,12,25.8,28.9Zm-26.2-16.1c-6.6,0-8.7,8.6-8.7,16.4,0,9.4,2.7,16.5,8.7,16.5s8.4-7.5,8.4-16.5c0-8.3-2.4-16.4-8.4-16.4Z"/>
  <path class="cls-1" d="m213.1,40.8c-1.2-.3-2.5-.4-4.3-.4-4.5,0-8.7,2.1-10.2,7.1-.5,1.3-.7,3.3-.7,5.3v28.2h-17.6v-38.1c0-7.4-.2-13.1-.4-18.2h15.1l.7,9.4h.4c2.8-7.4,8.7-10.5,13.3-10.5,1.7,0,2.6.1,3.7.3v16.9Z"/>
  <path class="cls-1" d="m326.1,3.7l-16.9,77.3h-18.8l-5.2-28.2c-1.3-7.2-2.4-15.1-3.4-24.4h-.2c-1.4,9.2-2.6,17-4.2,24.5l-5.9,28.1h-18.6L237,3.7h18.7l4.4,30.2c1.3,9,2.4,18.6,3.5,27.1h.2c1.2-8.9,3-17.9,4.7-27.3l5.6-30h17l5.2,30.6c1.5,8.9,2.7,17.2,3.7,26.5h.3c1-9.3,2.2-18,3.6-27.1l4.6-30h17.6Z"/>
  <path class="cls-1" d="m378.6,81h-43.9V3.7h42.4v14.7h-24.8v15.5h23.5v14.4h-23.5v18h26.3v14.7Z"/>
  <path class="cls-1" d="m428.6,39.8c9.1,2.4,14.6,9.5,14.6,18.5,0,6.1-2.6,11.9-7.2,16-5.3,4.7-14.1,7.4-29,7.4-7.5,0-13.3-.5-17.2-1.1V4.8c4.6-.9,12.8-1.6,20.9-1.6,9.2,0,16.1,1,21.8,4.7,5,3.2,8,8.5,8,15s-3.6,13.2-11.9,16.6v.3Zm-17.2-5.2c7.4,0,11.7-4,11.7-9.6,0-6.2-4.3-8.9-10.2-8.9-2.7,0-4.4.2-5.6.5v18h4.1Zm-4.1,33.6c1.3.3,2.8.3,4.9.3,6.7,0,12.6-3.2,12.6-10.7s-6.6-10.5-13-10.5h-4.5v20.9Z"/>
</svg>