<?xml version="1.0" encoding="UTF-8"?>
<svg id="_2" data-name=" 2" xmlns="http://www.w3.org/2000/svg" viewBox="0 0 512 512">
  <defs>
    <style>
      .cls-1 {
        fill: none;
      }

      .cls-2 {
        fill: #595757;
      }
    </style>
  </defs>
  <polygon class="cls-2" points="236.42 416.13 271.77 416.13 273.1 348.22 235.1 348.22 236.42 416.13"/>
  <polygon class="cls-2" points="415.61 260.98 373.04 260.98 369.72 319.81 410.45 319.81 415.61 260.98"/>
  <path class="cls-2" d="m402.64,408.76l5.32-60.55h-39.85l-3.84,67.91h30.33c4.18,0,7.67-3.19,8.04-7.36h0Z"/>
  <polygon class="cls-2" points="344.54 260.98 303.31 260.98 302.14 319.81 341.22 319.81 344.54 260.98"/>
  <polygon class="cls-2" points="339.62 348.22 301.59 348.22 300.26 416.13 335.78 416.13 339.62 348.22"/>
  <polygon class="cls-2" points="273.66 319.81 274.82 260.98 233.39 260.98 234.54 319.81 273.66 319.81"/>
  <polygon class="cls-2" points="172.43 416.13 207.93 416.13 206.6 348.22 168.57 348.22 172.43 416.13"/>
  <polygon class="cls-2" points="206.04 319.81 204.9 260.98 163.65 260.98 166.98 319.81 206.04 319.81"/>
  <path class="cls-2" d="m105.57,408.76c.36,4.17,3.86,7.36,8.03,7.36h30.32l-3.83-67.91h-39.84l5.32,60.55h0Z"/>
  <polygon class="cls-2" points="138.48 319.81 135.15 260.98 92.58 260.98 97.75 319.81 138.48 319.81"/>
  <path class="cls-2" d="m485.84,172.09h-141.33l78.31-57.66v-.02c5.1-3.6,9.1-8.3,11.78-13.54,2.73-5.35,4.14-11.25,4.15-17.22,0-7.38-2.2-14.92-6.71-21.43h0l-3.53-5.1h-.02c-3.62-5.26-8.43-9.35-13.78-12.08-5.33-2.73-11.22-4.14-17.19-4.14-7.39,0-14.93,2.19-21.42,6.71l-.15.09-155.56,114.53h.02c-3.87,2.74-7.1,6.1-9.61,9.86H26.16c-14.45,0-26.16,11.71-26.16,26.16v12.27c0,13.95,10.94,25.33,24.72,26.08l25.3,186.7h0c1.56,13.53,8.07,25.5,17.58,34.01,9.57,8.6,22.29,13.8,36.04,13.8h300.89c13.74,0,26.47-5.2,36.05-13.8,9.51-8.51,16.02-20.48,17.58-34.01l25.3-186.62h2.37c14.44,0,26.16-11.72,26.16-26.16v-12.27c0-14.45-11.72-26.16-26.16-26.16h.01Zm-254.42,15.37c.89-1.7,2.14-3.19,3.87-4.39l.17-.11,155.26-114.31c2.12-1.45,4.44-2.12,6.8-2.12,1.92,0,3.84.45,5.54,1.33,1.71.87,3.2,2.13,4.4,3.86h-.02l3.54,5.1h0c1.47,2.14,2.14,4.46,2.15,6.84,0,1.91-.45,3.83-1.33,5.54-.89,1.71-2.14,3.2-3.86,4.4l-.14.1-155.29,114.33c-2.12,1.45-4.44,2.12-6.81,2.13-1.91,0-3.83-.46-5.54-1.34-1.71-.87-3.19-2.14-4.39-3.86l-3.54-5.11h0c-1.47-2.12-2.13-4.45-2.14-6.83,0-1.91.45-3.84,1.32-5.54v-.02Zm201.34,232.59l-.02.15c-.79,7.22-4.2,13.49-9.26,18.04-5.08,4.54-11.66,7.24-18.93,7.25H103.65c-7.26,0-13.87-2.72-18.93-7.25-5.06-4.54-8.47-10.81-9.26-18.04l-.02-.13-.02-.2-24.44-180.28h406.23l-24.46,180.46h0Z"/>
  <rect class="cls-1" width="512" height="512"/>
</svg>