<?xml version="1.0" encoding="UTF-8"?>
<svg id="_2" data-name="2" xmlns="http://www.w3.org/2000/svg" viewBox="0 0 512 512">
  <defs>
    <style>
      .cls-1 {
        fill: none;
      }

      .cls-2 {
        fill: #595757;
      }
    </style>
  </defs>
  <rect class="cls-1" width="512" height="512"/>
  <g>
    <path class="cls-2" d="m261.42,371.35c10.62-.02,20-4.23,26.98-11.17,6.94-6.99,11.16-16.36,11.17-26.98-.02-10.62-4.23-20-11.17-26.98-6.98-6.94-16.36-11.16-26.98-11.17-10.62.02-20,4.23-26.98,11.17-6.94,6.98-11.16,16.36-11.17,26.98,0,10.62,4.23,19.99,11.17,26.98,6.99,6.94,16.36,11.16,26.98,11.17Z"/>
    <path class="cls-2" d="m423.89,253.84c-10.16-3.11-20.4-5.96-30.68-8.48-22.43-5.49-38.04-25.23-37.92-48.01.07-6.35.08-12.59.08-18.83l-11.16-2.93c-17.62-4.08-51.82-10.85-79.08-10.85h-7.4c-27.35,0-61.59,6.79-79.19,10.86l-.02.04-11.05,2.88c0,6.25.02,12.47.09,18.68.09,22.93-15.52,42.68-37.97,48.17-10.24,2.51-20.47,5.36-30.63,8.46l-10.11,29.43-45.42,96.89v53.26c0,28.96,23.47,52.43,52.43,52.43h331.12c28.96,0,52.43-23.47,52.43-52.43v-53.26l-45.42-96.89-10.11-29.42Zm-253.48,79.35c-.02-25.05,10.23-47.96,26.66-64.35,16.38-16.43,39.3-26.67,64.35-26.66,25.05-.02,47.96,10.23,64.35,26.66,16.43,16.39,26.66,39.3,26.66,64.35,0,25.05-10.23,47.96-26.66,64.35-16.39,16.43-39.3,26.67-64.35,26.66-25.05.02-47.96-10.23-64.35-26.66-16.43-16.39-26.67-39.3-26.66-64.35Z"/>
    <path class="cls-2" d="m465.76,52.85c-41.97-18.12-141.09-36.57-227.84-20.62C150.7,45.43,63.03,95.19,29.27,126.02c-35.07,30.49-38.19,62.89-11.71,83.37,8.46,8.52,16.82,17.11,25.04,25.8,7.22,7.55,18.92,9,28.26,3.77,18.54-10.43,37.55-19.83,56.96-28.2,9.84-4.23,15.68-14.51,13.9-24.88-1.33-7.47-2.62-14.98-3.84-22.49-1.59-9.51,4.03-19.36,13.93-23.79-.34-.4,56.04-25.67,98.76-31.91,42.43-8.03,103.97-2.52,103.78-2.05,10.8.96,19.35,8.45,20.94,17.95,1.29,7.51,2.53,15.01,3.71,22.52,1.69,10.38,10.55,18.19,21.24,18.98,21.07,1.58,42.11,4.27,63.03,8.09,10.55,1.91,21.12-3.28,25.49-12.78,4.95-10.89,10.05-21.75,15.28-32.55,18.36-27.99,4.82-57.6-38.26-75Z"/>
  </g>
</svg>