<?xml version="1.0" encoding="UTF-8"?>
<svg id="_2" data-name="2" xmlns="http://www.w3.org/2000/svg" viewBox="0 0 512 512">
  <defs>
    <style>
      .cls-1 {
        fill: none;
      }

      .cls-2 {
        fill: #595757;
      }
    </style>
  </defs>
  <g>
    <path class="cls-2" d="m449.89,87.95c-3.77-8.91-10.03-16.44-17.92-21.78-7.89-5.33-17.5-8.47-27.72-8.47h-42.66v-7.36h-61.83c.28-2,.44-4.06.44-6.14,0-24.38-19.83-44.2-44.2-44.2s-44.2,19.83-44.2,44.2c0,2.08.16,4.14.44,6.14h-61.83v7.36h-42.66c-6.81,0-13.36,1.39-19.28,3.91-8.91,3.77-16.45,10.03-21.8,17.92-5.33,7.91-8.47,17.5-8.47,27.72v355.22c0,6.78,1.39,13.34,3.91,19.28,3.77,8.91,10.03,16.44,17.92,21.78,7.91,5.34,17.5,8.47,27.72,8.47h296.5c6.8,0,13.36-1.38,19.28-3.91,8.92-3.75,16.45-10.03,21.8-17.92,5.33-7.89,8.47-17.5,8.47-27.7V107.25c0-6.81-1.38-13.36-3.91-19.3Zm-193.89-60.16c9.05,0,16.41,7.36,16.41,16.41,0,2.17-.44,4.23-1.2,6.14h-30.39c-.78-1.91-1.22-3.97-1.22-6.14,0-9.05,7.38-16.41,16.41-16.41Zm168.33,434.67c0,2.81-.56,5.41-1.58,7.8-1.5,3.58-4.06,6.67-7.28,8.86-3.22,2.16-7,3.41-11.22,3.41H107.75c-2.81,0-5.42-.56-7.81-1.56-3.59-1.52-6.67-4.09-8.84-7.3-2.16-3.22-3.41-7-3.42-11.2V107.25c0-2.81.56-5.42,1.58-7.81,1.52-3.59,4.08-6.69,7.28-8.84,3.22-2.16,7-3.41,11.22-3.42h42.66v6.14c0,11.53,9.34,20.88,20.89,20.88h169.42c11.53,0,20.88-9.34,20.88-20.88v-6.14h42.66c2.81,0,5.42.56,7.81,1.58,3.58,1.5,6.67,4.06,8.84,7.28s3.42,7,3.42,11.22v355.22Z"/>
    <rect class="cls-2" x="156.14" y="170.67" width="31.62" height="31.62"/>
    <rect class="cls-2" x="225.52" y="170.67" width="130.36" height="31.62"/>
    <rect class="cls-2" x="156.14" y="264.12" width="31.62" height="31.62"/>
    <rect class="cls-2" x="225.52" y="264.12" width="130.36" height="31.62"/>
    <rect class="cls-2" x="156.14" y="357.59" width="31.62" height="31.62"/>
    <rect class="cls-2" x="225.52" y="357.59" width="130.36" height="31.62"/>
  </g>
  <rect class="cls-1" width="512" height="512"/>
</svg>