<?xml version="1.0" encoding="UTF-8"?>
<svg id="_2" data-name="2" xmlns="http://www.w3.org/2000/svg" viewBox="0 0 512 512">
  <defs>
    <style>
      .cls-1 {
        fill: none;
      }

      .cls-2 {
        fill: #595757;
      }
    </style>
  </defs>
  <path class="cls-2" d="m453.04,429.75c-2-7.5-4.83-14.23-8.33-20.23-6.12-10.52-14.25-18.7-23.2-25.2-6.7-4.88-13.89-8.83-21.17-12.25-10.94-5.12-22.12-9.06-32.44-12.88-10.33-3.8-19.78-7.53-27.09-11.86-2.69-1.58-5.11-3.23-7.2-4.95-3.12-2.62-5.53-5.39-7.3-8.5s-2.95-6.59-3.41-10.97c-.33-3.11-.47-6.06-.47-8.84,0-8.25,1.22-15.42,2.77-22.73,4.62-5.22,8.84-11.42,12.84-18.86s7.81-16.17,11.59-26.5c2.44-1.11,4.88-2.44,7.28-4.03,5.45-3.69,10.62-8.78,14.94-15.59s7.78-15.28,10.14-25.73c.66-2.89.97-5.78.97-8.61,0-5.94-1.39-11.59-3.75-16.64-1.62-3.48-3.7-6.7-6.12-9.62,1.23-4.55,2.73-10.69,4.06-17.86,1.84-9.97,3.38-21.92,3.38-34.53,0-8.11-.62-16.48-2.28-24.78-1.25-6.2-3.05-12.36-5.62-18.27-3.84-8.86-9.44-17.2-17.23-24.09-7.2-6.39-16.23-11.45-27.12-14.73-4.61-5.52-9.38-10.19-14.3-14.11-8.28-6.61-17-11.05-25.89-13.72s-17.89-3.64-26.88-3.64c-4.73,0-9.45.27-14.2.69-4.44.41-8.12.86-11.42,1.42-4.94.83-9,1.92-12.94,3.28-3.95,1.36-7.75,2.95-12.73,4.91-1.89.75-4.36,1.84-7.36,3.36-5.22,2.62-11.97,6.53-19.16,11.91-10.81,8.05-22.75,19.44-32.03,34.84-4.66,7.69-8.62,16.41-11.42,26.14-2.81,9.77-4.44,20.52-4.44,32.28,0,7.31.66,15.06,2,23.17,0,.56.03,1.12.06,1.66.06,1,.17,2.06.28,3.16.17,1.61.36,3.28.5,4.69.08.69.14,1.31.19,1.81,0,.23.02.44.03.59v1.14l1.98,8.83c-2.84,3.11-5.31,6.61-7.23,10.44-2.67,5.34-4.27,11.34-4.25,17.7,0,2.81.3,5.7.95,8.59,1.58,6.98,3.64,13.08,6.12,18.36,3.72,7.97,8.41,14.16,13.62,18.81,4.03,3.61,8.34,6.25,12.62,8.2,3.78,10.31,7.58,19.03,11.59,26.48,3.98,7.44,8.2,13.62,12.83,18.84,1.53,7.3,2.77,14.48,2.77,22.75,0,2.8-.12,5.73-.45,8.84-.31,3-.98,5.59-1.94,7.94-1.42,3.48-3.48,6.45-6.31,9.28-2.81,2.78-6.42,5.38-10.67,7.8-4.33,2.45-9.33,4.73-14.78,6.94-9.55,3.86-20.41,7.52-31.44,11.89-8.28,3.31-16.64,7.06-24.62,11.78-5.98,3.52-11.75,7.59-17.05,12.45-7.92,7.23-14.78,16.3-19.5,27.53-4.75,11.2-7.39,24.47-7.38,40.16,0,2.2.47,4.33,1.23,6.27.72,1.81,1.69,3.52,2.84,5.08,2.17,2.97,5,5.61,8.44,8.17,6.05,4.47,14.08,8.64,24.48,12.58,15.59,5.88,36.5,11.14,63.52,15,27,3.83,60.12,6.23,100.06,6.23,34.59,0,64.11-1.81,88.94-4.8,18.64-2.22,34.64-5.12,48.23-8.44,10.19-2.5,19.02-5.23,26.59-8.11,5.69-2.14,10.69-4.38,15.02-6.69,3.23-1.75,6.12-3.5,8.66-5.34,3.81-2.75,6.86-5.59,9.19-8.81,1.14-1.61,2.12-3.33,2.83-5.17.69-1.86,1.11-3.89,1.11-5.97,0-10.73-1.24-20.33-3.53-28.92Zm-214.5,7.55l-59.03-75.47c3.08-1.8,6-3.75,8.73-5.94,2.94-2.36,5.64-4.97,8.02-7.94l42.92,19.92-9.16,15.28,14.19,15.05-5.67,39.09Zm-36.2-99.42c1.73-4.05,2.92-8.47,3.39-13.25.39-3.69.56-7.22.56-10.56,0-10.94-1.81-20.16-3.61-28.5l-.52-2.27-1.59-1.69c-4.05-4.28-7.95-9.77-11.88-17.05-3.91-7.3-7.81-16.38-11.83-27.69l-1.31-3.7-3.69-1.36c-2.56-.94-5.05-2.14-7.44-3.75-3.59-2.44-7.02-5.73-10.16-10.66-3.12-4.92-5.94-11.53-7.97-20.47-.38-1.7-.55-3.34-.55-4.92,0-3.58.88-6.97,2.5-10.23,1.34-2.69,3.22-5.25,5.5-7.53,3.84,5.81,7,10.41,8.17,11.55,3.75,3.77,2.58,2.61,3.83.75,0,0,4.27-6,26.83-49.89,45.14,10.03,124.02-57.77,124.02-57.77,0,0,.95,21.89,16,41.95,14.27,19.03,22.41,63.7,22.41,63.7,0,0,1.94-3.67,4.83-8.61,1.73,2.02,3.17,4.2,4.22,6.47,1.44,3.08,2.19,6.27,2.19,9.59,0,1.59-.17,3.23-.55,4.92-1.36,5.95-3.05,10.89-4.97,14.95-2.86,6.12-6.16,10.33-9.61,13.42-3.47,3.09-7.14,5.11-10.97,6.52l-3.69,1.34-1.31,3.7c-4.02,11.33-7.92,20.42-11.83,27.7-3.92,7.31-7.84,12.78-11.89,17.06l-1.59,1.69-.5,2.28c-1.81,8.31-3.62,17.55-3.62,28.47,0,3.34.17,6.88.55,10.56.45,4.34,1.44,8.41,2.94,12.16.06.17.14.34.22.5l-50.8,26.72-56.28-26.12Zm75.22,102.16l-6.08-41.83,14.2-15.05-9.19-15.34,38.83-20.41c1.08,1.39,2.2,2.72,3.42,3.95,3.86,3.95,8.3,7.22,13.06,10.06l-54.25,78.61Z"/>
  <rect class="cls-1" width="512" height="512"/>
</svg>